<svg
              id="bca70d0a-57dd-451b-a82c-bb6927f27458"
              data-name="Layer 1"
              xmlns="http://www.w3.org/2000/svg"
              width="788.68127"
              height="637.00861"
              viewBox="0 0 798.68127 647.00861"
            >
              <title>predictive analytics</title>
              <polygon
                points="126.832 0 74.02 103.009 84.681 103.009 84.681 187.009 30.953 187.009 0 247.381 383.53 444.017 510.363 196.636 126.832 0"
                fill="#f2f2f2"
              />
              <rect
                x="115.68127"
                y="67.00861"
                width="588"
                height="295"
                fill="#3f3d56"
              />
              <rect
                x="198.18127"
                y="173.00861"
                width="434"
                height="1"
                fill="#6c63ff"
                opacity="0.3"
              />
              <rect
                x="198.68127"
                y="198.00861"
                width="434"
                height="1"
                fill="#6c63ff"
                opacity="0.3"
              />
              <rect
                x="198.68127"
                y="248.00861"
                width="434"
                height="1"
                fill="#6c63ff"
                opacity="0.3"
              />
              <rect
                x="198.68127"
                y="270.00861"
                width="434"
                height="1"
                fill="#6c63ff"
                opacity="0.3"
              />
              <rect
                x="198.68127"
                y="223.00861"
                width="434"
                height="1"
                fill="#6c63ff"
                opacity="0.3"
              />

              <polygon
                points="210.722 270.733 209.342 269.285 273.943 207.712 330.889 248.674 376.94 197.618 397.133 214.782 452.062 181.824 513.076 222.833 608.837 168.364 609.825 170.102 512.988 225.184 452.002 184.193 396.931 217.235 377.124 200.399 331.175 251.343 274.121 210.305 210.722 270.733"
                fill="#6c63ff"
              />

              <circle
                cx="765.18127"
                cy="53.50861"
                r="33.5"
                fill="#6c63ff"
                opacity="0.4"
              />
              <circle
                cx="703.18127"
                cy="69.50861"
                r="23.5"
                fill="#6c63ff"
                opacity="0.4"
              />
              <circle
                cx="674.18127"
                cy="500.50861"
                r="12.5"
                fill="#6c63ff"
                opacity="0.4"
              />
              <circle
                cx="461.18127"
                cy="565.50861"
                r="9.5"
                fill="#6c63ff"
                opacity="0.4"
              />
              <circle
                cx="429.18127"
                cy="439.50861"
                r="12.5"
                fill="#6c63ff"
                opacity="0.4"
              />
              <circle cx="608.18127" cy="173.50861" r="13" fill="#6c63ff" />
              <rect
                x="12.68127"
                y="115.00861"
                width="64"
                height="64"
                fill="#3f3d56"
              />
            </svg>